<svg width="16" height="16" viewBox="0 0 16 16" fill="none" xmlns="http://www.w3.org/2000/svg">
<path d="M6.0063 14.1667C5.87964 14.1667 5.75297 14.12 5.65297 14.02L2.31297 10.68C2.11964 10.4867 2.11964 10.1667 2.31297 9.97337C2.5063 9.78004 2.8263 9.78004 3.01964 9.97337L6.35964 13.3134C6.55297 13.5067 6.55297 13.8267 6.35964 14.02C6.25964 14.1134 6.13297 14.1667 6.0063 14.1667Z" fill="#3A354E"/>
<path d="M6.00684 14.1667C5.7335 14.1667 5.50684 13.94 5.50684 13.6667V2.33337C5.50684 2.06004 5.7335 1.83337 6.00684 1.83337C6.28017 1.83337 6.50684 2.06004 6.50684 2.33337V13.6667C6.50684 13.94 6.28017 14.1667 6.00684 14.1667Z" fill="#3A354E"/>
<path d="M13.3403 6.17329C13.2136 6.17329 13.087 6.12663 12.987 6.02663L9.64695 2.68663C9.45362 2.49329 9.45362 2.17329 9.64695 1.97996C9.84029 1.78663 10.1603 1.78663 10.3536 1.97996L13.6936 5.31996C13.887 5.51329 13.887 5.83329 13.6936 6.02663C13.5936 6.12663 13.467 6.17329 13.3403 6.17329Z" fill="#3A354E"/>
<path d="M9.99316 14.1667C9.71983 14.1667 9.49316 13.94 9.49316 13.6667V2.33337C9.49316 2.06004 9.71983 1.83337 9.99316 1.83337C10.2665 1.83337 10.4932 2.06004 10.4932 2.33337V13.6667C10.4932 13.94 10.2732 14.1667 9.99316 14.1667Z" fill="#3A354E"/>
</svg>
